<svg width="240" height="229" viewBox="0 0 240 229" fill="none" xmlns="http://www.w3.org/2000/svg">
<path d="M110.705 0L176.16 7.27273L190.705 72.7273L161.615 101.818L117.978 65.4545L110.705 0Z" fill="#86E2FA"/>
<path d="M112.727 18.1818L80 14.5455L88.8873 94.5455L132.524 130.909L161.615 101.818L117.978 65.4545L112.727 18.1818Z" fill="#47B6E5"/>
<path d="M82.0218 32.7273L49.2946 29.0909L59.7964 123.636L103.433 160L132.524 130.909L88.8873 94.5455L82.0218 32.7273Z" fill="#3063BC"/>
<path d="M117.978 65.4545L112.727 18.1818L83.6364 47.2727L88.8873 94.5455L132.524 130.909L161.615 101.818L117.978 65.4545Z" fill="#3063BC"/>
<path d="M88.8873 94.5455L82.0218 32.7273L52.9309 61.8182L59.7964 123.636L103.433 160L132.524 130.909L88.8873 94.5455Z" fill="#00318A"/>
<path d="M146.409 206.95L161.572 208.635L148.094 222.114L146.409 206.95Z" fill="#47B6E5"/>
<path d="M14.3629 222.239C16.6484 222.239 18.7066 221.266 20.1454 219.711L24.7339 224.3C22.1196 227.027 18.4396 228.726 14.3629 228.726C6.43051 228.726 0 222.295 0 214.363C0 206.431 6.43051 200 14.3629 200C18.4544 200 22.1462 201.711 24.7622 204.456L20.1732 209.045C18.7331 207.473 16.6632 206.486 14.3629 206.486C10.0129 206.486 6.48649 210.013 6.48649 214.363C6.48649 218.713 10.0129 222.239 14.3629 222.239Z" fill="white"/>
<path fill-rule="evenodd" clip-rule="evenodd" d="M79.9228 214.363C79.9228 222.295 73.4923 228.726 65.5598 228.726C57.6274 228.726 51.1969 222.295 51.1969 214.363C51.1969 206.431 57.6274 200 65.5598 200C73.4923 200 79.9228 206.431 79.9228 214.363ZM73.4363 214.363C73.4363 218.713 69.9099 222.239 65.5598 222.239C61.2098 222.239 57.6834 218.713 57.6834 214.363C57.6834 210.013 61.2098 206.486 65.5598 206.486C69.9099 206.486 73.4363 210.013 73.4363 214.363Z" fill="white"/>
<path fill-rule="evenodd" clip-rule="evenodd" d="M115.598 227.799H126.255C133.675 227.799 139.691 221.784 139.691 214.363C139.691 206.942 133.675 200.927 126.255 200.927H115.598V227.799ZM122.085 221.313H126.255C130.093 221.313 133.205 218.201 133.205 214.363C133.205 210.525 130.093 207.413 126.255 207.413H122.085V221.313Z" fill="white"/>
<path d="M29.6525 200.927L36.139 201.438V221.313H46.332V227.799H29.6525V200.927Z" fill="white"/>
<path d="M102.394 200.927V216.68C102.394 219.238 100.319 221.313 97.7606 221.313C95.2018 221.313 93.1274 219.238 93.1274 216.68V201.438L86.6409 200.927V216.68C86.6409 222.821 91.6194 227.799 97.7606 227.799C103.902 227.799 108.88 222.821 108.88 216.68V201.438L102.394 200.927Z" fill="white"/>
<path d="M174.208 227.799H167.722V200.927L174.208 201.438V227.799Z" fill="white"/>
<path fill-rule="evenodd" clip-rule="evenodd" d="M177.915 227.799H184.402L186.598 222.703H197.494L199.691 227.799H206.178L194.774 201.343L189.498 200.927L177.915 227.799ZM192.046 210.063L194.698 216.216H189.394L192.046 210.063Z" fill="white"/>
<path d="M240 227.799V201.657L230.734 200.927L224.942 217.722L219.41 201.678L209.884 200.927V227.799H216.371V211.676L221.93 227.799H227.954L233.514 211.676V227.799H240Z" fill="white"/>
</svg>
