<svg width="300" height="300" viewBox="0 0 300 300" fill="none" xmlns="http://www.w3.org/2000/svg">
<path d="M141.44 40L231.44 50L251.44 140L211.44 180L151.44 130L141.44 40Z" fill="#86E2FA"/>
<path d="M144.22 65L99.22 60L111.44 170L171.44 220L211.44 180L151.44 130L144.22 65Z" fill="#47B6E5"/>
<path d="M102 85L57 80L71.44 210L131.44 260L171.44 220L111.44 170L102 85Z" fill="#3063BC"/>
<path d="M151.44 130L144.22 65L104.22 105L111.44 170L171.44 220L211.44 180L151.44 130Z" fill="#3063BC"/>
<path d="M111.44 170L102 85L62 125L71.44 210L131.44 260L171.44 220L111.44 170Z" fill="#00318A"/>
</svg>
