<svg width="177" height="200" viewBox="0 0 177 200" fill="none" xmlns="http://www.w3.org/2000/svg">
<path d="M76.7636 0L158.582 9.09091L176.764 90.9091L140.4 127.273L85.8545 81.8182L76.7636 0Z" fill="#E3E3E3"/>
<path d="M79.2909 22.7273L38.3818 18.1818L49.4909 118.182L104.036 163.636L140.4 127.273L85.8545 81.8182L79.2909 22.7273Z" fill="#BDBDBD"/>
<path d="M40.9091 40.9091L0 36.3636L13.1273 154.545L67.6727 200L104.036 163.636L49.4909 118.182L40.9091 40.9091Z" fill="#656565"/>
<path d="M85.8545 81.8182L79.2909 22.7273L42.9273 59.0909L49.4909 118.182L104.036 163.636L140.4 127.273L85.8545 81.8182Z" fill="#656565"/>
<path d="M49.4909 118.182L40.9091 40.9091L4.54545 77.2727L13.1273 154.545L67.6727 200L104.036 163.636L49.4909 118.182Z" fill="#333333"/>
</svg>
