<svg width="178" height="200" viewBox="0 0 178 200" fill="none" xmlns="http://www.w3.org/2000/svg">
<path fill-rule="evenodd" clip-rule="evenodd" d="M75.3809 0.853106C76.0066 0.227453 76.8827 -0.0798767 77.7621 0.0178337L157.197 8.84396C158.435 8.98151 159.449 9.89102 159.719 11.1069L177.371 90.5421C177.587 91.5142 177.291 92.5293 176.587 93.2334L70.6738 199.147C69.6087 200.212 67.907 200.289 66.7497 199.325L13.7929 155.194C13.215 154.713 12.8458 154.026 12.7627 153.278L0.0178228 38.5387C-0.0798561 37.6593 0.22749 36.7832 0.853141 36.1576C1.47879 35.5319 2.35491 35.2246 3.23429 35.3223L39.331 39.3331L37.2817 20.8865C37.184 20.0071 37.4914 19.131 38.117 18.5053C38.7427 17.8797 39.6188 17.5724 40.4982 17.6701L76.5952 21.6809L74.5456 3.23429C74.4479 2.35489 74.7553 1.47876 75.3809 0.853106ZM89.0319 80.8608L82.7889 24.6564C82.785 24.6208 82.7804 24.5854 82.7752 24.5503L80.7373 6.2095L154.484 14.4036L171.338 90.2449L139.045 122.538L89.0319 80.8608ZM77.2546 27.6152L83.3717 82.6694C83.4548 83.4171 83.824 84.1037 84.4019 84.5853L134.909 126.674L103.74 157.843L53.7274 116.165L45.525 42.3087C45.5206 42.2692 45.5155 42.23 45.5095 42.1911L43.4733 23.8617L77.2546 27.6152ZM39.9902 45.2674L48.0672 117.974C48.1503 118.721 48.5195 119.408 49.0974 119.89L99.604 161.979L68.4356 193.147L18.4229 151.47L6.20938 41.514L39.9902 45.2674Z" fill="#656565"/>
</svg>
