<svg width="859" height="320" viewBox="0 0 859 320" fill="none" xmlns="http://www.w3.org/2000/svg">
<path d="M141.411 80L206.865 87.2727L221.411 152.727L192.32 181.818L148.684 145.455L141.411 80Z" fill="#86E2FA"/>
<path d="M143.433 98.1818L110.705 94.5455L119.593 174.545L163.229 210.909L192.32 181.818L148.684 145.455L143.433 98.1818Z" fill="#47B6E5"/>
<path d="M112.727 112.727L80 109.091L90.5018 203.636L134.138 240L163.229 210.909L119.593 174.545L112.727 112.727Z" fill="#3063BC"/>
<path d="M148.684 145.455L143.433 98.1818L114.342 127.273L119.593 174.545L163.229 210.909L192.32 181.818L148.684 145.455Z" fill="#3063BC"/>
<path d="M119.593 174.545L112.727 112.727L83.6364 141.818L90.5018 203.636L134.138 240L163.229 210.909L119.593 174.545Z" fill="#00318A"/>
<path d="M577 144L609.727 147.636L580.636 176.727L577 144Z" fill="#47B6E5"/>
<path d="M292 177C296.933 177 301.375 174.899 304.48 171.543L314.384 181.447C308.742 187.334 300.799 191 292 191C274.879 191 261 177.121 261 160C261 142.879 274.879 129 292 129C300.831 129 308.799 132.692 314.445 138.617L304.54 148.522C301.432 145.128 296.965 143 292 143C282.611 143 275 150.611 275 160C275 169.389 282.611 177 292 177Z" fill="#0B0B0B"/>
<path fill-rule="evenodd" clip-rule="evenodd" d="M433.5 160C433.5 177.121 419.621 191 402.5 191C385.379 191 371.5 177.121 371.5 160C371.5 142.879 385.379 129 402.5 129C419.621 129 433.5 142.879 433.5 160ZM419.5 160C419.5 169.389 411.889 177 402.5 177C393.111 177 385.5 169.389 385.5 160C385.5 150.611 393.111 143 402.5 143C411.889 143 419.5 150.611 419.5 160Z" fill="#0B0B0B"/>
<path fill-rule="evenodd" clip-rule="evenodd" d="M510.5 189H533.5C549.516 189 562.5 176.016 562.5 160C562.5 143.984 549.516 131 533.5 131H510.5V189ZM524.5 175H533.5C541.784 175 548.5 168.284 548.5 160C548.5 151.716 541.784 145 533.5 145H524.5V175Z" fill="#0B0B0B"/>
<path d="M325 131L339 132.104V175H361V189H325V131Z" fill="#0B0B0B"/>
<path d="M482 131V165C482 170.523 477.523 175 472 175C466.477 175 462 170.523 462 165V132.104L448 131V165C448 178.255 458.745 189 472 189C485.255 189 496 178.255 496 165V132.104L482 131Z" fill="#0B0B0B"/>
<path d="M637 189H623V131L637 132.104V189Z" fill="#0B0B0B"/>
<path fill-rule="evenodd" clip-rule="evenodd" d="M645 189H659L663.741 178H687.259L692 189H706L681.387 131.898L670 131L645 189ZM675.5 150.72L681.224 164H669.776L675.5 150.72Z" fill="#0B0B0B"/>
<path d="M779 189V132.577L759 131L746.5 167.25L734.559 132.621L714 131V189H728V154.2L740 189H753L765 154.2V189H779Z" fill="#0B0B0B"/>
</svg>
