<svg width="699" height="160" viewBox="0 0 699 160" fill="none" xmlns="http://www.w3.org/2000/svg">
<path d="M61.4109 0L126.865 7.27273L141.411 72.7273L112.32 101.818L68.6836 65.4545L61.4109 0Z" fill="#86E2FA"/>
<path d="M63.4327 18.1818L30.7055 14.5455L39.5927 94.5455L83.2291 130.909L112.32 101.818L68.6836 65.4545L63.4327 18.1818Z" fill="#47B6E5"/>
<path d="M32.7273 32.7273L0 29.0909L10.5018 123.636L54.1382 160L83.2291 130.909L39.5927 94.5455L32.7273 32.7273Z" fill="#3063BC"/>
<path d="M68.6836 65.4545L63.4327 18.1818L34.3418 47.2727L39.5927 94.5455L83.2291 130.909L112.32 101.818L68.6836 65.4545Z" fill="#3063BC"/>
<path d="M39.5927 94.5455L32.7273 32.7273L3.63636 61.8182L10.5018 123.636L54.1382 160L83.2291 130.909L39.5927 94.5455Z" fill="#00318A"/>
<path d="M497 64L529.727 67.6364L500.636 96.7273L497 64Z" fill="#47B6E5"/>
<path d="M212 97C216.933 97 221.375 94.899 224.48 91.543L234.384 101.447C228.742 107.334 220.799 111 212 111C194.879 111 181 97.1208 181 80C181 62.8792 194.879 49 212 49C220.831 49 228.799 52.6923 234.445 58.6173L224.54 68.5221C221.432 65.1282 216.965 63 212 63C202.611 63 195 70.6112 195 80C195 89.3888 202.611 97 212 97Z" fill="white"/>
<path fill-rule="evenodd" clip-rule="evenodd" d="M353.5 80C353.5 97.1208 339.621 111 322.5 111C305.379 111 291.5 97.1208 291.5 80C291.5 62.8792 305.379 49 322.5 49C339.621 49 353.5 62.8792 353.5 80ZM339.5 80C339.5 89.3888 331.889 97 322.5 97C313.111 97 305.5 89.3888 305.5 80C305.5 70.6112 313.111 63 322.5 63C331.889 63 339.5 70.6112 339.5 80Z" fill="white"/>
<path fill-rule="evenodd" clip-rule="evenodd" d="M430.5 109H453.5C469.516 109 482.5 96.0162 482.5 80C482.5 63.9838 469.516 51 453.5 51H430.5V109ZM444.5 95H453.5C461.784 95 468.5 88.2842 468.5 80C468.5 71.7158 461.784 65 453.5 65H444.5V95Z" fill="white"/>
<path d="M245 51L259 52.1037V95H281V109H245V51Z" fill="white"/>
<path d="M402 51V85C402 90.5228 397.523 95 392 95C386.477 95 382 90.5228 382 85V52.1037L368 51V85C368 98.2548 378.745 109 392 109C405.255 109 416 98.2548 416 85V52.1037L402 51Z" fill="white"/>
<path d="M557 109H543V51L557 52.1037V109Z" fill="white"/>
<path fill-rule="evenodd" clip-rule="evenodd" d="M565 109H579L583.741 98H607.259L612 109H626L601.387 51.8977L590 51L565 109ZM595.5 70.72L601.224 84H589.776L595.5 70.72Z" fill="white"/>
<path d="M699 109V52.5768L679 51L666.5 87.25L654.559 52.6208L634 51V109H648V74.2L660 109H673L685 74.2V109H699Z" fill="white"/>
</svg>
