<?xml version="1.0" encoding="UTF-8" standalone="no"?>
<svg
   id="Nov"
   viewBox="0 0 449.43 449.43"
   version="1.1"
   sodipodi:docname="raw-blue.svg"
   inkscape:version="1.1.1 (c3084ef, 2021-09-22)"
   xmlns:inkscape="http://www.inkscape.org/namespaces/inkscape"
   xmlns:sodipodi="http://sodipodi.sourceforge.net/DTD/sodipodi-0.dtd"
   xmlns="http://www.w3.org/2000/svg"
   xmlns:svg="http://www.w3.org/2000/svg">
  <sodipodi:namedview
     id="namedview36"
     pagecolor="#ffffff"
     bordercolor="#666666"
     borderopacity="1.0"
     inkscape:pageshadow="2"
     inkscape:pageopacity="0.0"
     inkscape:pagecheckerboard="0"
     showgrid="false"
     showguides="false"
     inkscape:zoom="1.5998042"
     inkscape:cx="224.40246"
     inkscape:cy="232.21592"
     inkscape:window-width="1323"
     inkscape:window-height="969"
     inkscape:window-x="0"
     inkscape:window-y="38"
     inkscape:window-maximized="0"
     inkscape:current-layer="Nov" />
  <defs
     id="defs11">
    <style
       id="style9">.cls-1{fill:#45a2f8;}</style>
  </defs>
  <path
     class="cls-1"
     d="m 45.935229,322.15013 a 32,32 0 0 1 20.73,7.05 l -4.39,8.26 a 27.47,27.47 0 0 0 -16.25,-5.51 c -13.68,0 -21.67,9.55 -21.67,21.25 0,11.7 8,21.24 21.67,21.24 a 26.88,26.88 0 0 0 16.25,-5.51 l 4.39,8.35 a 32,32 0 0 1 -20.73,7 c -20.38,0 -32.85,-14.28 -32.85,-31 0,-16.72 12.47,-31.13 32.85,-31.13 z"
     id="path13" />
  <path
     class="cls-1"
     d="m 74.875229,383.29013 v -62.17 h 10.62 v 62.17 z"
     id="path15" />
  <path
     class="cls-1"
     d="m 118.26523,338.88013 c 12.73,0 23.65,10.24 23.65,22.71 0,12.47 -10.92,22.7 -23.65,22.7 -12.56,0 -23.570001,-10.06 -23.570001,-22.7 0,-12.64 11.010001,-22.71 23.570001,-22.71 z m 0,36.38 c 7.39,0 13,-6 13,-13.67 0,-7.67 -5.59,-13.68 -13,-13.68 -7.41,0 -12.9,6 -12.9,13.68 0,7.68 5.59,13.62 12.9,13.62 z"
     id="path17" />
  <path
     class="cls-1"
     d="m 191.10523,383.29013 h -10.58 v -7.3 c -2.75,5.67 -7.83,8.25 -14,8.25 -10.83,0 -16.16,-7.83 -16.16,-20.38 v -24.08 h 10.51 v 24 c 0,7.06 2.76,11.18 8.43,11.18 4.9,0 11.18,-4 11.18,-16.34 v -18.84 h 10.58 z"
     id="path19" />
  <path
     class="cls-1"
     d="m 247.08523,321.12013 v 62.17 h -10.57 v -6.53 c -3.19,4.73 -8.6,7.48 -15,7.48 -12.81,0 -21.24,-10.15 -21.24,-22.87 0,-12.3 8,-22.54 21.33,-22.54 a 17.88,17.88 0 0 1 14.88,7.4 v -25.11 z m -23.3,54.26 c 7.22,0 12.9,-4.9 12.9,-13.5 0,-8.43 -5.33,-14.19 -13.25,-14.19 -7.92,0 -12.47,6.28 -12.47,13.76 0,7.74 4.91,13.93 12.82,13.93 z"
     id="path21" />
  <path
     class="cls-1"
     d="m 293.69523,383.29013 h -11 v -60.19 h 11 z"
     id="path23" />
  <path
     class="cls-1"
     d="m 302.21523,383.29013 23.22,-60.19 h 11.44 l 23.39,60.19 h -11.27 l -4.56,-11.78 h -26.48 l -4.39,11.78 z m 29,-49 -10.15,28.29 h 20.21 z"
     id="path25" />
  <path
     class="cls-1"
     d="m 397.87523,382.61013 -17.2,-41.37 -3.61,42.05 h -11 l 5.59,-60.19 h 11.52 l 18.49,44.28 18.41,-44.28 h 11.52 l 5.68,60.19 h -11 l -3.7,-42.05 -17.2,41.37 z"
     id="path27" />
  <path
     class="cls-1"
     d="m 390.42523,212.82013 c 0,0.64 0.05,1.29 0.05,1.94 a 83.45,83.45 0 0 1 -83.33,83.36 l -225.000001,-1.18 a 58.62,58.62 0 1 1 7.19,-116.78 l 4.64,0.56 0.87,-4.59 a 101.63,101.63 0 0 1 180.680001,-42.25 l 2.16,2.83 3.38,-1.11 a 83.24,83.24 0 0 1 18,-3.77 c -0.88,-3.33 -1.67,-6.61 -2.4,-9.81 a 92.79,92.79 0 0 0 -15.38,3 111.64,111.64 0 0 0 -195.410001,44.8 c -1.29,-0.08 -2.57,-0.12 -3.82,-0.12 a 68.62,68.62 0 0 0 0,137.24 l 225.050001,1.18 a 93.34,93.34 0 0 0 92.86,-103 83.31,83.31 0 0 1 -9.54,7.7 z"
     id="path29" />
  <path
     class="cls-1"
     d="m 369.06523,214.18013 -1.47,-0.45 c -26.65,-8.22 -47,-34 -58.93,-74.44 a 265.19,265.19 0 0 1 -10,-58.150005 l -0.22,-5.51 5.5,0.32 c 0.33,0 34.53,1.59 61.84,-22.21 l 3.28,-2.86 3.29,2.86 c 27.3,23.8 61.5,22.23 61.84,22.21 l 5.48,-0.3 -0.21,5.49 a 265.19,265.19 0 0 1 -10,58.150005 c -11.9,40.48 -32.27,66.22 -58.93,74.44 z m -60.05,-128.300005 c 1.79,21.270005 11.7,101.340005 60.05,117.770005 48.35,-16.43 58.26,-96.5 60.05,-117.770005 -11.2,-0.44 -37,-3.58 -60.05,-21.9 -23.04,18.36 -48.85,21.5 -60.05,21.9 z"
     id="path31" />
  <path
     class="cls-1"
     d="m 375.45523,132.61013 a 22.32,22.32 0 1 0 -9.32,0.42 v 44.7 h 9.32 v -5.85 h 11 v -9.32 h -11 v -4.68 h 11 v -9.32 h -11 z m -18,-21.58 a 12.31,12.31 0 1 1 12.3,12.31 12.32,12.32 0 0 1 -12.26,-12.31 z"
     id="path33" />
</svg>
